<svg width="25" height="24" viewBox="0 0 25 24" fill="none" xmlns="http://www.w3.org/2000/svg">
<g opacity="0.5">
<path fill-rule="evenodd" clip-rule="evenodd" d="M16.9522 2.73508V3.76997C19.9609 4.06186 21.5 5.72477 21.5 8.71446V16.9848C21.5 20.3106 19.6043 22 15.8739 22H9.12609C5.39565 22 3.5 20.3106 3.5 16.9848V8.71446C3.5 6.72428 4.17826 5.30019 5.56957 4.46874C5.78888 4.31904 6.07263 4.30859 6.30202 4.44176C6.5314 4.57494 6.66687 4.82876 6.65169 5.09698C6.63652 5.3652 6.47333 5.60155 6.23043 5.70708C5.3087 6.25548 4.87391 7.21077 4.87391 8.71446V8.97981H17.5609C17.9403 8.97981 18.2478 9.29266 18.2478 9.67859C18.2478 10.0645 17.9403 10.3774 17.5609 10.3774H4.87391V16.9848C4.87391 19.5233 6.1087 20.5759 9.12609 20.5936H15.8739C18.8478 20.5936 20.1174 19.5145 20.1174 16.9759V8.70561C20.1174 6.4943 19.1522 5.42403 16.9522 5.16752V5.83975C16.9014 6.19806 16.593 6.45964 16.2374 6.44599C15.8818 6.43234 15.5936 6.14786 15.5696 5.78668V2.67316C15.5763 2.48618 15.6565 2.30977 15.7921 2.18341C15.9278 2.05706 16.1076 1.99132 16.2913 2.00092C16.67 2.02461 16.9623 2.34923 16.9522 2.73508ZM9.20877 6.29279C9.07806 6.42409 8.90109 6.49667 8.71739 6.4943C8.3414 6.48465 8.04295 6.16923 8.04783 5.78668V2.73508C8.08736 2.37709 8.38498 2.10645 8.73913 2.10645C9.09328 2.10645 9.3909 2.37709 9.43043 2.73508V3.69921H13.3609C13.7403 3.69921 14.0478 4.01206 14.0478 4.39798C14.0478 4.7839 13.7403 5.09675 13.3609 5.09675H9.41304V5.79553C9.41306 5.9824 9.33949 6.16149 9.20877 6.29279ZM16.6913 12.6152C16.2111 12.6152 15.8217 13.0112 15.8217 13.4997C15.8217 13.9882 16.2111 14.3843 16.6913 14.3843C17.1716 14.3843 17.5609 13.9882 17.5609 13.4997C17.5609 13.2636 17.4681 13.0373 17.3031 12.8711C17.1382 12.705 16.9147 12.6128 16.6826 12.6152H16.6913ZM11.6478 13.4997C11.6478 13.0112 12.0371 12.6152 12.5174 12.6152C12.9976 12.6152 13.387 13.0112 13.387 13.4997C13.387 13.9882 12.9976 14.3843 12.5174 14.3843C12.0371 14.3843 11.6478 13.9882 11.6478 13.4997ZM8.35217 12.6152C7.87193 12.6152 7.48261 13.0112 7.48261 13.4997C7.48261 13.9882 7.87193 14.3843 8.35217 14.3843C8.83242 14.3843 9.22174 13.9882 9.22174 13.4997C9.22175 13.2636 9.12894 13.0373 8.96398 12.8711C8.79902 12.705 8.5756 12.6128 8.34348 12.6152H8.35217ZM15.8217 17.082C15.8217 16.5935 16.2111 16.1975 16.6913 16.1975H16.6826C16.9147 16.1952 17.1382 16.2873 17.3031 16.4534C17.4681 16.6196 17.5609 16.8459 17.5609 17.082C17.5609 17.5706 17.1716 17.9666 16.6913 17.9666C16.2111 17.9666 15.8217 17.5706 15.8217 17.082ZM12.5174 16.1975C12.0371 16.1975 11.6478 16.5935 11.6478 17.082C11.6478 17.5706 12.0371 17.9666 12.5174 17.9666C12.9976 17.9666 13.387 17.5706 13.387 17.082C13.387 16.5935 12.9976 16.1975 12.5174 16.1975ZM7.48261 17.082C7.48261 16.5935 7.87193 16.1975 8.35217 16.1975H8.34348C8.5756 16.1952 8.79902 16.2873 8.96398 16.4534C9.12894 16.6196 9.22175 16.8459 9.22174 17.082C9.22174 17.5706 8.83242 17.9666 8.35217 17.9666C7.87193 17.9666 7.48261 17.5706 7.48261 17.082Z" fill="#09121C"/>
</g>
</svg>
