<svg width="25" height="24" viewBox="0 0 25 24" fill="none" xmlns="http://www.w3.org/2000/svg">
<g opacity="0.5">
<path fill-rule="evenodd" clip-rule="evenodd" d="M12.5067 2C14.1245 2 15.7361 2.39907 17.168 3.15403C22.0432 5.72638 23.9181 11.7855 21.3475 16.6624C19.5942 19.9879 16.142 22 12.4953 22C11.7829 22 11.0634 21.9234 10.3474 21.7648C9.94408 21.6749 9.68957 21.275 9.77851 20.8715C9.86746 20.468 10.2664 20.2152 10.6724 20.3024C14.3966 21.1305 18.2415 19.3431 20.023 15.9638C22.2088 11.8181 20.6148 6.66546 16.4696 4.47897C15.2526 3.83676 13.8823 3.4976 12.5059 3.4976H12.4962C7.81028 3.4976 3.9971 7.31119 3.9971 11.9987C3.99534 13.3641 4.32822 14.7234 4.95964 15.9312L5.15162 16.3065C5.38675 16.747 5.43871 17.294 5.28636 17.7891C5.07588 18.3441 4.90064 18.8841 4.75621 19.4215C5.31806 19.2523 6.00408 19.003 6.49988 18.8224L6.70331 18.7493C7.08815 18.6057 7.52055 18.8092 7.66145 19.1986C7.80235 19.5871 7.60069 20.017 7.21232 20.1571L7.01154 20.2302L6.97736 20.2426L6.97733 20.2426C6.23908 20.5101 5.24506 20.8703 4.5704 21.0213C4.51227 21.0336 4.44975 21.0415 4.39251 21.0398C3.93281 21.0398 3.65277 20.8539 3.49865 20.6971C3.26176 20.4566 3.14904 20.1192 3.16225 19.6946C3.16401 19.6461 3.17017 19.5959 3.18162 19.5475C3.35951 18.7899 3.59112 18.034 3.87117 17.3019C3.89142 17.2306 3.87909 17.1011 3.82185 16.9927L3.62899 16.6183C2.89013 15.2035 2.49824 13.6029 2.50001 11.9978C2.50001 6.48487 6.98424 2 12.4953 2H12.5067ZM6.90348 11.9991C6.90348 11.3428 7.43627 10.8098 8.09235 10.8098C8.74843 10.8098 9.28122 11.3428 9.28122 11.9991C9.28122 12.6545 8.74843 13.1875 8.09235 13.1875C7.43627 13.1875 6.90348 12.6545 6.90348 11.9991ZM13.6845 11.9988C13.6845 11.3433 13.1517 10.8095 12.4956 10.8095C11.8396 10.8095 11.3068 11.3433 11.3068 11.9988C11.3068 12.6542 11.8396 13.188 12.4956 13.188C13.1517 13.188 13.6845 12.6542 13.6845 11.9988ZM16.8989 10.8095C17.5549 10.8095 18.0877 11.3433 18.0877 11.9988C18.0877 12.6542 17.5549 13.188 16.8989 13.188C16.2428 13.188 15.71 12.6542 15.71 11.9988C15.71 11.3433 16.2428 10.8095 16.8989 10.8095Z" fill="#09121C"/>
</g>
</svg>
