<svg width="25" height="24" viewBox="0 0 25 24" fill="none" xmlns="http://www.w3.org/2000/svg">
<g opacity="0.5">
<path fill-rule="evenodd" clip-rule="evenodd" d="M8.55836 7.35387C8.55836 5.19392 10.3264 3.43696 12.5 3.43696C14.6736 3.43696 16.4416 5.19392 16.4416 7.35387C16.4416 9.51281 14.6736 11.2698 12.5 11.2698C10.3264 11.2698 8.55836 9.51281 8.55836 7.35387ZM7.11233 7.35387C7.11233 10.3048 9.52943 12.7067 12.5 12.7067C15.4706 12.7067 17.8867 10.3048 17.8867 7.35387C17.8867 4.40194 15.4706 2 12.5 2C9.52943 2 7.11233 4.40194 7.11233 7.35387ZM11.4776 21.985C11.8127 21.995 12.1538 22 12.5 22C15.9345 22 20.5 21.619 20.5 18.3301C20.5 14.6392 14.4784 14.6392 12.5 14.6392C9.06553 14.6392 4.5 15.0202 4.5 18.3101C4.5 19.2951 4.96088 20.624 7.1566 21.363C7.53597 21.493 7.94453 21.288 8.07333 20.913C8.20113 20.538 7.99887 20.131 7.6205 20.004C6.11811 19.4981 5.94503 18.7951 5.94503 18.3101C5.94503 16.8271 8.15082 16.0751 12.5 16.0751C16.8492 16.0751 19.055 16.8341 19.055 18.3301C19.055 19.8121 16.8492 20.563 12.5 20.563C12.1679 20.563 11.8409 20.559 11.5189 20.55C11.1325 20.553 10.7883 20.851 10.7772 21.247C10.7652 21.644 11.0791 21.975 11.4776 21.985Z" fill="#09121C"/>
</g>
</svg>
